# Blender 4.5.4 LTS
# www.blender.org
o Cylinder
v 0.000000 0.250000 -1.000000
v 0.000000 0.250000 0.000000
v 0.095671 0.230970 -1.000000
v 0.095671 0.230970 0.000000
v 0.176777 0.176777 -1.000000
v 0.176777 0.176777 0.000000
v 0.230970 0.095671 -1.000000
v 0.230970 0.095671 0.000000
v 0.250000 0.000000 -1.000000
v 0.250000 -0.000000 -0.000000
v 0.230970 -0.095671 -1.000000
v 0.230970 -0.095671 -0.000000
v 0.176777 -0.176777 -1.000000
v 0.176777 -0.176777 -0.000000
v 0.095671 -0.230970 -1.000000
v 0.095671 -0.230970 -0.000000
v 0.000000 -0.250000 -1.000000
v 0.000000 -0.250000 -0.000000
v -0.095671 -0.230970 -1.000000
v -0.095671 -0.230970 -0.000000
v -0.176777 -0.176777 -1.000000
v -0.176777 -0.176777 -0.000000
v -0.230970 -0.095671 -1.000000
v -0.230970 -0.095671 -0.000000
v -0.250000 0.000000 -1.000000
v -0.250000 -0.000000 -0.000000
v -0.230970 0.095671 -1.000000
v -0.230970 0.095671 0.000000
v -0.176777 0.176777 -1.000000
v -0.176777 0.176777 0.000000
v -0.095671 0.230970 -1.000000
v -0.095671 0.230970 0.000000
vn 0.7071 0.7071 -0.0000
vn 0.3827 0.9239 -0.0000
vn 0.9239 0.3827 -0.0000
vn 1.0000 -0.0000 -0.0000
vn 0.9239 -0.3827 -0.0000
vn 0.7071 -0.7071 -0.0000
vn 0.3827 -0.9239 -0.0000
vn -0.0000 -1.0000 -0.0000
vn -0.3827 -0.9239 -0.0000
vn -0.7071 -0.7071 -0.0000
vn -0.9239 -0.3827 -0.0000
vn -1.0000 -0.0000 -0.0000
vn -0.9239 0.3827 -0.0000
vn -0.7071 0.7071 -0.0000
vn -0.3827 0.9239 -0.0000
vn -0.0000 1.0000 -0.0000
vn -0.0000 -0.0000 1.0000
vn -0.0000 -0.0000 -1.0000
vt 0.875000 1.000000
vt 0.937500 0.500000
vt 0.937500 1.000000
vt 0.812500 1.000000
vt 0.875000 0.500000
vt 0.750000 1.000000
vt 0.812500 0.500000
vt 0.687500 1.000000
vt 0.750000 0.500000
vt 0.625000 1.000000
vt 0.687500 0.500000
vt 0.562500 1.000000
vt 0.625000 0.500000
vt 0.500000 1.000000
vt 0.562500 0.500000
vt 0.437500 1.000000
vt 0.500000 0.500000
vt 0.375000 1.000000
vt 0.437500 0.500000
vt 0.312500 1.000000
vt 0.375000 0.500000
vt 0.250000 1.000000
vt 0.312500 0.500000
vt 0.187500 1.000000
vt 0.250000 0.500000
vt 0.125000 1.000000
vt 0.187500 0.500000
vt 0.062500 1.000000
vt 0.125000 0.500000
vt 0.000000 1.000000
vt 0.062500 0.500000
vt 0.158156 0.028269
vt 0.471731 0.158156
vt 0.341844 0.471731
vt 0.841844 0.028269
vt 0.528269 0.158156
vt 0.658156 0.471731
vt 1.000000 0.500000
vt 1.000000 1.000000
vt 0.000000 0.500000
vt 0.250000 0.490000
vt 0.158156 0.471731
vt 0.080294 0.419706
vt 0.028269 0.341844
vt 0.010000 0.250000
vt 0.028269 0.158156
vt 0.080294 0.080294
vt 0.250000 0.010000
vt 0.341844 0.028269
vt 0.419706 0.080294
vt 0.490000 0.250000
vt 0.471731 0.341844
vt 0.419706 0.419706
vt 0.750000 0.490000
vt 0.841844 0.471731
vt 0.919706 0.419706
vt 0.971731 0.341844
vt 0.990000 0.250000
vt 0.971731 0.158156
vt 0.919706 0.080294
vt 0.750000 0.010000
vt 0.658156 0.028269
vt 0.580294 0.080294
vt 0.510000 0.250000
vt 0.528269 0.341844
vt 0.580294 0.419706
s 1
f 6/1/1 3/2/2 4/3/2
f 8/4/3 5/5/1 6/1/1
f 10/6/4 7/7/3 8/4/3
f 12/8/5 9/9/4 10/6/4
f 14/10/6 11/11/5 12/8/5
f 16/12/7 13/13/6 14/10/6
f 18/14/8 15/15/7 16/12/7
f 20/16/9 17/17/8 18/14/8
f 22/18/10 19/19/9 20/16/9
f 24/20/11 21/21/10 22/18/10
f 26/22/12 23/23/11 24/20/11
f 28/24/13 25/25/12 26/22/12
f 30/26/14 27/27/13 28/24/13
f 32/28/15 29/29/14 30/26/14
f 2/30/16 31/31/15 32/28/15
s 0
f 20/32/17 12/33/17 4/34/17
f 15/35/18 23/36/18 31/37/18
s 1
f 4/3/2 1/38/16 2/39/16
f 6/1/1 5/5/1 3/2/2
f 8/4/3 7/7/3 5/5/1
f 10/6/4 9/9/4 7/7/3
f 12/8/5 11/11/5 9/9/4
f 14/10/6 13/13/6 11/11/5
f 16/12/7 15/15/7 13/13/6
f 18/14/8 17/17/8 15/15/7
f 20/16/9 19/19/9 17/17/8
f 22/18/10 21/21/10 19/19/9
f 24/20/11 23/23/11 21/21/10
f 26/22/12 25/25/12 23/23/11
f 28/24/13 27/27/13 25/25/12
f 30/26/14 29/29/14 27/27/13
f 32/28/15 31/31/15 29/29/14
f 2/30/16 1/40/16 31/31/15
s 0
f 4/34/17 2/41/17 32/42/17
f 32/42/17 30/43/17 28/44/17
f 28/44/17 26/45/17 24/46/17
f 24/46/17 22/47/17 20/32/17
f 20/32/17 18/48/17 16/49/17
f 16/49/17 14/50/17 12/33/17
f 12/33/17 10/51/17 8/52/17
f 8/52/17 6/53/17 4/34/17
f 4/34/17 32/42/17 28/44/17
f 28/44/17 24/46/17 20/32/17
f 20/32/17 16/49/17 12/33/17
f 12/33/17 8/52/17 4/34/17
f 4/34/17 28/44/17 20/32/17
f 31/37/18 1/54/18 3/55/18
f 3/55/18 5/56/18 7/57/18
f 7/57/18 9/58/18 11/59/18
f 11/59/18 13/60/18 15/35/18
f 15/35/18 17/61/18 19/62/18
f 19/62/18 21/63/18 23/36/18
f 23/36/18 25/64/18 27/65/18
f 27/65/18 29/66/18 31/37/18
f 31/37/18 3/55/18 7/57/18
f 7/57/18 11/59/18 15/35/18
f 15/35/18 19/62/18 23/36/18
f 23/36/18 27/65/18 31/37/18
f 31/37/18 7/57/18 15/35/18
s 1
f 4/3/2 3/2/2 1/38/16
